<?xml version="1.0" standalone="no"?>
<!DOCTYPE svg PUBLIC "-//W3C//DTD SVG 1.1//EN" "http://www.w3.org/Graphics/SVG/1.1/DTD/svg11.dtd" >
<svg xmlns="http://www.w3.org/2000/svg">
<metadata>Generated by IcoMoon</metadata>
<defs>
<font id="icomoon" horiz-adv-x="1024">
<font-face units-per-em="1024" ascent="960" descent="-64" />
<missing-glyph horiz-adv-x="1024" />
<glyph unicode="&#x20;" horiz-adv-x="512" d="" />
<glyph unicode="&#xe900;" glyph-name="cart-light" d="M923.672 183.68h61.57c21.375 0 38.758 17.383 38.758 38.758 0 21.367-17.383 38.75-38.758 38.75h-325.93c-8.281 0-15-6.719-15-15s6.719-15 15-15h325.93c4.828 0 8.758-3.922 8.758-8.75s-3.93-8.758-8.758-8.758h-532.438c-16.281 0-31.117 8.953-38.711 23.367-7.586 14.406-6.586 31.695 2.609 45.125l21.75 31.758 23.117 2.758-30.43-44.414c-5.602-8.188-6.18-18.305-1.563-27.070 4.633-8.773 13.32-14.016 23.227-14.016h146.508c8.289 0 15 6.719 15 15s-6.711 15-15 15h-139.398l34.922 50.961c1.945 2.836 3.469 5.883 4.586 9.055l404.406 48.273c48.656 5.828 85.344 47.164 85.344 96.148v55.25c0 8.281-6.719 15-15 15s-15-6.719-15-15v-7.258l-182.398-12.063-7.516 88.367 189.914 1.141v-9.953c0-8.281 6.719-15 15-15s15 6.719 15 15v24.953c0 0.063 0.008 0.117 0.008 0.18 0 0.047-0.008 0.094-0.008 0.141v82.25c0 21.5-16.813 39.227-38.273 40.359l-436.625 23.125c-0.18 0.008-0.359 0.023-0.539 0.023l-217.109 11.5-3.375 15.188c-5.398 24.328-24.727 42.953-49.234 47.445l-48.305 8.852 2.234 12.672c0.82 4.672-0.219 9.383-2.938 13.258-2.719 3.883-6.789 6.469-11.453 7.297l-130.133 22.945c-11.969 2.109-24.047-0.563-34.008-7.539s-16.609-17.406-18.719-29.383c-4.359-24.719 12.203-48.367 36.922-52.727l130.133-22.945c1.039-0.18 2.070-0.273 3.086-0.273 8.438 0 15.938 6.063 17.461 14.656l2.203 12.5 48.109-8.813c12.625-2.313 22.578-11.906 25.359-24.438l83.531-376.5c0-0.008 0.008-0.023 0.008-0.031l12.844-57.891c3.781-17.039 18.734-28.773 35.766-28.773 0.922 0 1.844 0.047 2.773 0.117l-6.938-10.133c-15.508-22.641-17.195-51.789-4.398-76.063 12.805-24.289 37.805-39.375 65.25-39.375h16.852v-7.836c-41.555-7.148-73.281-43.422-73.281-86.984 0-48.68 39.602-88.281 88.281-88.281 48.672 0 88.281 39.602 88.281 88.281 0 21.75-7.984 42.648-22.477 58.844-5.523 6.172-15 6.703-21.18 1.18-6.172-5.523-6.703-15.008-1.172-21.18 9.563-10.688 14.828-24.484 14.828-38.844 0-32.141-26.148-58.281-58.281-58.281s-58.281 26.141-58.281 58.281c0 26.953 18.391 49.68 43.281 56.313v-16.891c-15.891-6.063-27.227-21.43-27.227-39.422 0-23.289 18.938-42.234 42.227-42.234s42.227 18.945 42.227 42.234c0 17.992-11.336 33.352-27.227 39.422v55.391h394.016v-7.836c-41.555-7.141-73.281-43.414-73.281-86.977 0-48.68 39.602-88.289 88.281-88.289s88.281 39.609 88.281 88.289c0 21.75-7.977 42.648-22.469 58.844-5.523 6.172-15.008 6.695-21.18 1.172s-6.703-15-1.18-21.18c9.563-10.688 14.836-24.477 14.836-38.836 0-32.141-26.148-58.289-58.281-58.289-32.141 0-58.289 26.148-58.289 58.289 0 26.945 18.398 49.68 43.289 56.313v-16.891c-15.898-6.063-27.234-21.43-27.234-39.422 0-23.289 18.945-42.234 42.234-42.234 23.281 0 42.227 18.945 42.227 42.234 0 17.992-11.336 33.352-27.227 39.422v55.391zM42.828 831.195c-8.43 1.484-14.070 9.547-12.586 17.969 0.719 4.086 2.984 7.641 6.375 10.023 2.641 1.844 5.711 2.805 8.867 2.805 0.906 0 1.82-0.078 2.727-0.242l118.055-20.813-5.391-30.563zM587.469 361.93l-15.109 96.055 177.016 11.703 7.445-87.539zM959.172 483.547v-17.914c0-33.813-25.328-62.344-58.898-66.359l-113.648-13.57-7.313 85.961zM746.828 499.578l-179.148-11.836-15.875 100.883 187.359 1.117zM335.742 587.328l185.727 1.117 16.156-102.695-176.758-11.68zM728.875 710.711l7.742-90.977-189.523-1.133-16.141 102.594zM959.172 688.641v-67.578l-192.461-1.148-7.586 89.195 190.188-10.070c5.531-0.297 9.859-4.859 9.859-10.398zM500.328 722.813l16.43-104.398-187.664-1.125-25.719 115.953zM389.633 344.414l-22.188 100.023 174.859 11.563 15.359-97.625-72.695-8.68c-0.047-0.008-0.094-0.008-0.133-0.008l-56.695-6.773c-0.031 0-0.063-0.008-0.094-0.016l-31.047-3.703c-3.445-0.406-6.609 1.828-7.367 5.219zM484.648 76.633c-6.742 0-12.227 5.492-12.227 12.234s5.484 12.227 12.227 12.227c6.75 0 12.234-5.484 12.234-12.227s-5.492-12.234-12.234-12.234zM908.672 76.633c-6.742 0-12.234 5.492-12.234 12.234s5.492 12.227 12.234 12.227c6.742 0 12.227-5.484 12.227-12.227s-5.484-12.234-12.227-12.234z" />
<glyph unicode="&#xe901;" glyph-name="search" d="M1011.016 8.836l-326.96 326.96c52.81 65.776 84.428 149.294 84.428 240.204 0 212.066-171.934 384-384 384s-384-171.934-384-384 171.934-384 384-384c90.414 0 173.518 31.27 239.126 83.56l327.064-327.064c16.662-16.662 43.678-16.662 60.34 0 16.666 16.664 16.666 43.678 0.002 60.34zM85.82 576c0 164.938 133.73 298.666 298.666 298.666s298.668-133.728 298.668-298.666c0-82.708-33.632-157.566-87.96-211.652-0.004-0.004-0.010-0.008-0.014-0.014-0.002-0.002-0.006-0.006-0.008-0.010-54.010-53.758-128.468-86.992-210.684-86.992-164.938 0.002-298.668 133.73-298.668 298.668z" />
<glyph unicode="&#xe902;" glyph-name="phone" d="M1010.792 208.297c-5.008 9.47-11.324 18.909-18.839 28.405-17.127 21.641-40.418 43.543-68.513 65.753-19.601 15.496-40.438 30.263-61.259 43.883-12.523 8.193-22.362 14.245-28.221 17.678-49.454 28.159-106.429 24.426-135.853-22.993-1.367-1.623-3.103-3.679-5.129-6.063-5.539-6.514-11.16-13.020-16.489-19.053-1.151-1.301-1.151-1.301-2.3-2.594-8.846-9.937-16.943-18.3-16.645-18.098-32.569-22.042-53.77-20.308-82.484 8.408l-207.435 207.431c-28.714 28.714-30.451 49.915-8.395 82.504-0.214-0.316 8.149 7.781 18.086 16.627 1.293 1.149 1.293 1.149 2.594 2.3 6.033 5.329 12.539 10.95 19.053 16.489 2.384 2.026 4.438 3.765 6.063 5.129 47.42 29.424 51.158 86.387 23.259 135.391-3.699 6.32-9.751 16.158-17.944 28.682-13.62 20.821-28.387 41.659-43.883 61.259-22.208 28.095-44.113 51.386-65.753 68.513-9.496 7.515-18.937 13.832-28.419 18.847-44.115 23.319-98.204 15.198-133.513-20.042l-45.827-45.869c-152.022-152.022-110.124-333.195 71.544-514.862l265.539-265.539c181.664-181.664 362.838-223.562 514.872-71.526l45.797 45.839c35.287 35.219 43.441 89.396 20.094 133.499zM930.428 135.098l-45.827-45.869c-111.221-111.221-241.7-81.046-394.292 71.544l-265.529 265.527c-152.596 152.596-182.771 283.075-71.536 394.31l45.797 45.839c8.808 8.792 22.328 10.82 33.388 4.974 4.548-2.406 9.723-5.869 15.362-10.331 15.632-12.371 33.32-31.182 51.78-54.533 13.762-17.408 27.098-36.228 39.419-55.059 7.371-11.27 12.703-19.936 15.466-24.652 7.691-13.516 7.218-19.423 4.95-20.698l-6.428-4.43c-1.886-1.573-5.117-4.29-9.254-7.807-6.892-5.863-13.79-11.819-20.27-17.544-1.415-1.253-1.415-1.253-2.833-2.512-16.865-15.015-26.386-24.232-31.989-32.501-44.704-66.055-39.255-132.636 18.703-190.594l207.431-207.431c57.958-57.958 124.539-63.409 190.576-18.717 8.287 5.615 17.504 15.136 32.519 32.001 1.259 1.417 1.259 1.417 2.512 2.833 5.725 6.48 11.684 13.378 17.544 20.27 3.517 4.134 6.234 7.365 7.807 9.254l4.43 6.428c1.273 2.268 7.182 2.74 21.159-5.217 4.254-2.498 12.92-7.829 24.19-15.2 18.833-12.319 37.65-25.655 55.061-39.419 23.351-18.46 42.16-36.148 54.531-51.78 4.462-5.637 7.925-10.814 10.337-15.372 5.837-11.014 3.805-24.522-5.004-33.314z" />
<glyph unicode="&#xe903;" glyph-name="email" d="M920.49 832h-817.024c-57.154 0-103.466-46.336-103.466-103.51v-560.982c0-57.174 46.312-103.508 103.466-103.508h817.024c57.154 0 103.51 46.334 103.51 103.51v560.98c0 57.176-46.356 103.51-103.51 103.51zM562.458 466.222c-28.714-26.088-72.226-26.088-100.754-0.168l-312.522 280.612h725.608l-312.332-280.444zM85.334 689.312l210.13-188.676-210.13-280.174v468.85zM359.206 443.402l45.3-40.674c60.886-55.32 154.078-55.32 215.15 0.168l45.114 40.508 220.55-294.070h-746.666l220.552 294.068zM728.51 500.636l210.156 188.7v-468.908l-210.156 280.208z" />
<glyph unicode="&#xe904;" glyph-name="cart" d="M837.566 290.426c31.118 23.378 53.656 55.338 65.202 92.46l121.232 358.91h-779.326l-8.598 95.34c-2.958 33.532-18.26 64.522-43.086 87.254-24.828 22.732-57.040 35.254-90.704 35.254h-102.286v-79.944h102.286c28.378 0 51.66-21.318 54.16-49.668l62.562-693.694c0.010-0.124 0.022-0.246 0.034-0.37 6.098-61.244 52.080-109.084 110.83-119.052 15.666-46.758 59.854-80.558 111.818-80.558 50.994 0 94.52 32.544 110.93 77.946h93.918c16.41-45.402 59.936-77.946 110.93-77.946 65.020 0 117.918 52.9 117.918 117.918s-52.898 117.918-117.918 117.918c-50.994 0-94.52-32.544-110.93-77.946h-93.918c-16.41 45.402-59.936 77.946-110.93 77.946-49.288 0-91.584-30.406-109.18-73.436-18.318 7.272-31.772 24.21-33.9 44.968l-9.958 110.412h440.836c39.1-0.002 76.472 12.546 108.078 36.288zM757.472 92.248c20.94 0 37.974-17.034 37.974-37.974s-17.034-37.974-37.974-37.974c-20.94 0-37.974 17.034-37.974 37.974s17.034 37.974 37.974 37.974zM441.692 92.248c20.94 0 37.974-17.034 37.974-37.974s-17.034-37.974-37.974-37.974-37.974 17.034-37.974 37.974 17.034 37.974 37.974 37.974zM281.444 334.078v0.002l-29.562 327.772h660.732l-86.084-254.902c-13.2-42.906-53.104-72.872-97.038-72.872h-448.048z" />
<glyph unicode="&#xe905;" glyph-name="close-light" d="M572.34 448l439.164 439.164c16.662 16.662 16.662 43.678 0 60.34s-43.678 16.662-60.34 0l-439.164-439.164-439.164 439.164c-16.662 16.662-43.678 16.662-60.34 0s-16.662-43.678 0-60.34l439.164-439.164-439.164-439.164c-16.662-16.662-16.662-43.678 0-60.34s43.678-16.662 60.34 0l439.164 439.164 439.164-439.164c16.662-16.662 43.678-16.662 60.34 0s16.662 43.678 0 60.34l-439.164 439.164z" />
<glyph unicode="&#xe906;" glyph-name="place" d="M444.013 953.446c-137.050-26.627-245.785-138.952-268.604-276.982-13.58-82.464 2.26-163.719 43.405-232.549 4.7-7.856 8.398-14.022 16.78-28.001l1.934-3.226c83.508-139.232 119.958-203.796 158.151-285.62l77.652-166.441c15.318-32.833 62.004-32.839 77.33-0.008l69.932 149.806c38.575 82.716 75.126 148.224 158.385 289.114l2.124 3.594c12.362 20.919 18.279 30.945 25.347 42.965 30.543 51.888 46.891 111.083 46.891 172.585 0.002 214.23-194.586 376.407-409.328 334.762zM732.901 489.372c-7.036-11.968-12.932-21.955-25.263-42.821l-2.124-3.594c-84.654-143.252-122.13-210.414-162.251-296.447l-31.251-66.946-39.001 83.592c-39.851 85.377-77.288 151.688-162.299 293.427l-1.934 3.226c-8.374 13.962-12.054 20.103-16.726 27.909-30.857 51.618-42.717 112.467-32.445 174.855 17.008 102.889 98.717 187.295 200.668 207.104 161.849 31.387 307.733-90.195 307.733-250.987 0-46.181-12.226-90.447-35.107-129.318zM512.001 746.69c-70.712 0-128.004-57.292-128.004-128.004s57.292-128.004 128.004-128.004 128.004 57.292 128.004 128.004-57.292 128.004-128.004 128.004zM512.001 576.019c-23.583 0-42.667 19.085-42.667 42.667s19.085 42.667 42.667 42.667c23.583 0 42.667-19.085 42.667-42.667s-19.085-42.667-42.667-42.667z" />
<glyph unicode="&#xe907;" glyph-name="place-solid" d="M524.919 959.787c-207.953 7.008-378.729-159.479-378.729-365.849 0-234.207 224.759-404.179 350.736-648.621 6.396-12.411 24.262-12.427 30.68-0.018 113.965 219.948 308.745 367.436 344.842 579.331 37.375 219.27-125.227 427.662-347.53 435.157zM512.248 402.194c-105.896 0-191.744 85.85-191.744 191.744s85.85 191.744 191.744 191.744c105.896 0 191.746-85.85 191.746-191.744s-85.85-191.744-191.746-191.744z" />
<glyph unicode="&#xe908;" glyph-name="instagram" d="M512.171 710.912c-145.195 0-262.741-117.675-262.741-262.741 0-145.195 117.675-262.741 262.741-262.741 145.195 0 262.741 117.675 262.741 262.741 0 145.195-117.675 262.741-262.741 262.741zM512.171 277.632c-94.251 0-170.539 76.331-170.539 170.539s76.331 170.539 170.539 170.539 170.539-76.331 170.539-170.539c0.043-94.208-76.288-170.539-170.539-170.539zM723.115 956.757c-94.208 4.395-327.552 4.181-421.845 0-82.859-3.883-155.947-23.893-214.869-82.816-98.475-98.475-85.888-231.168-85.888-425.771 0-199.168-11.093-328.789 85.888-425.771 98.859-98.816 233.472-85.888 425.771-85.888 197.291 0 265.387-0.128 335.147 26.88 94.848 36.821 166.443 121.6 173.44 273.877 4.437 94.251 4.181 327.552 0 421.845-8.448 179.755-104.917 288.768-297.643 297.643zM872.235 87.552c-64.555-64.555-154.112-58.795-361.301-58.795-213.333 0-298.88-3.157-361.301 59.435-71.893 71.552-58.88 186.453-58.88 360.661 0 235.733-24.192 405.504 212.395 417.621 54.357 1.92 70.357 2.56 207.189 2.56l1.92-1.28c227.371 0 405.76 23.808 416.469-212.736 2.432-53.973 2.987-70.187 2.987-206.805-0.043-210.859 3.968-296.917-59.477-360.661zM846.72 721.28c0-33.909-27.489-61.397-61.397-61.397s-61.397 27.489-61.397 61.397c0 33.909 27.489 61.397 61.397 61.397s61.397-27.489 61.397-61.397z" />
<glyph unicode="&#xe909;" glyph-name="vk" d="M1014.873 219.003c-2.752 4.608-19.777 41.603-101.704 117.641-85.766 79.622-74.246 66.693 29.058 204.367 62.917 83.846 88.071 135.050 80.198 156.94-7.489 20.866-53.764 15.361-53.764 15.361l-153.867-0.896c0 0-11.393 1.536-19.905-3.52-8.257-4.992-13.569-16.513-13.569-16.513s-24.386-64.901-56.9-120.073c-68.549-116.425-96.007-122.569-107.208-115.337-26.050 16.833-19.521 67.717-19.521 103.816 0 112.84 17.089 159.884-33.346 172.045-16.769 4.032-29.058 6.72-71.877 7.169-54.916 0.576-101.448-0.192-127.753-13.057-17.537-8.577-31.042-27.714-22.786-28.802 10.177-1.344 33.218-6.208 45.443-22.85 15.809-21.442 15.233-69.701 15.233-69.701s9.089-132.81-21.186-149.323c-20.802-11.329-49.284 11.777-110.408 117.449-31.298 54.084-54.98 113.928-54.98 113.928s-4.544 11.137-12.673 17.089c-9.857 7.233-23.682 9.537-23.682 9.537l-146.315-0.896c0 0-21.954-0.64-30.018-10.177-7.169-8.513-0.576-26.050-0.576-26.050s114.569-267.988 244.242-403.102c118.985-123.849 254.035-115.721 254.035-115.721h61.189c0 0 18.497 2.048 27.906 12.225 8.705 9.345 8.385 26.882 8.385 26.882s-1.216 82.118 36.931 94.215c37.571 11.905 85.83-79.366 136.97-114.504 38.659-26.562 68.037-20.738 68.037-20.738l136.778 1.92c0 0 71.557 4.416 37.635 60.677z" />
<glyph unicode="&#xe90a;" glyph-name="facebook" d="M682.539 789.973h93.483v162.816c-16.128 2.219-71.595 7.211-136.192 7.211-134.784 0-227.115-84.779-227.115-240.597v-143.403h-148.736v-182.016h148.736v-457.984h182.357v457.941h142.72l22.656 182.016h-165.419v125.397c0.043 52.608 14.208 88.619 87.509 88.619z" />
<glyph unicode="&#xe90b;" glyph-name="twitter" d="M1024 765.504c-38.080-16.704-78.656-27.776-120.96-33.152 43.52 25.984 76.736 66.816 92.352 116.032-40.576-24.192-85.376-41.28-133.12-50.816-38.528 41.024-93.44 66.432-153.344 66.432-116.224 0-209.792-94.336-209.792-209.984 0-16.64 1.408-32.64 4.864-47.872-174.528 8.512-328.96 92.16-432.704 219.584-18.112-31.424-28.736-67.392-28.736-106.112 0-72.704 37.44-137.152 93.248-174.464-33.728 0.64-66.816 10.432-94.848 25.856 0-0.64 0-1.472 0-2.304 0-102.016 72.768-186.752 168.192-206.272-17.088-4.672-35.712-6.912-55.040-6.912-13.44 0-27.008 0.768-39.744 3.584 27.2-83.136 104.384-144.256 196.16-146.24-71.424-55.872-162.112-89.536-260.288-89.536-17.216 0-33.728 0.768-50.24 2.88 92.992-59.968 203.2-94.208 322.048-94.208 386.304 0 597.504 320 597.504 597.376 0 9.28-0.32 18.24-0.768 27.136 41.664 29.568 76.672 66.496 105.216 108.992z" />
<glyph unicode="&#xe90c;" glyph-name="arrow-left" d="M966.44 528.301l1.598-0.35h-685.214l215.406 215.881c10.548 10.54 16.334 24.817 16.334 39.803s-5.786 29.163-16.334 39.728l-33.517 33.534c-10.54 10.54-24.584 16.367-39.561 16.367-14.985 0-29.038-5.786-39.578-16.326l-369.248-369.214c-10.581-10.581-16.367-24.676-16.326-39.67-0.042-15.077 5.744-29.18 16.326-39.745l369.248-369.248c10.54-10.531 24.584-16.326 39.578-16.326 14.977 0 29.022 5.803 39.561 16.326l33.517 33.534c10.548 10.523 16.334 24.576 16.334 39.561 0 14.977-5.786 28.289-16.334 38.82l-217.837 217.088h686.813c30.862 0 56.795 26.599 56.795 57.444v47.429c0 30.845-26.699 55.363-57.56 55.363z" />
<glyph unicode="&#xe90d;" glyph-name="arrow-down" d="M921.325 401.096l-33.542 33.551c-10.531 10.548-24.609 16.384-39.595 16.384-15.002 0-30.354-5.836-40.885-16.384l-216.863-215.573v684.889c0 30.887-22.545 56.037-53.423 56.037h-47.462c-30.87 0-59.117-25.15-59.117-56.037v-687.329l-216.43 218.012c-10.548 10.548-23.818 16.384-38.82 16.384-14.985 0-28.672-5.836-39.212-16.384l-33.359-33.551c-21.829-21.837-21.737-57.361 0.092-79.198l369.589-369.547c10.523-10.523 24.643-16.351 39.753-16.351h0.158c14.994 0 29.080 5.828 39.603 16.351l369.514 369.539c21.845 21.829 21.845 57.369 0 79.206z" />
<glyph unicode="&#xe90e;" glyph-name="left" d="M413.363 447.784l383.076 383.093c10.548 10.523 16.351 24.593 16.351 39.595 0 15.010-5.803 29.072-16.351 39.611l-33.567 33.551c-10.531 10.556-24.609 16.367-39.611 16.367s-29.063-5.811-39.603-16.367l-456.113-456.105c-10.581-10.573-16.376-24.701-16.334-39.72-0.042-15.085 5.744-29.196 16.334-39.778l455.688-455.663c10.54-10.556 24.601-16.367 39.611-16.367 15.002 0 29.063 5.811 39.611 16.367l33.559 33.551c21.837 21.837 21.837 57.386 0 79.214l-382.651 382.651z" />
<glyph unicode="&#xe90f;" glyph-name="truck" d="M1021.284 356.314l-128 341.334c-6.244 16.652-22.164 27.686-39.95 27.686h-170.666v128c-0.002 23.564-19.104 42.666-42.668 42.666h-597.334c-23.564 0-42.666-19.102-42.666-42.666v-725.334c0-23.564 19.102-42.666 42.666-42.666h49.974c17.57-49.718 64.948-85.334 120.694-85.334s103.124 35.616 120.692 85.334h355.95c17.568-49.718 64.946-85.334 120.69-85.334s103.124 35.616 120.692 85.334h49.974c23.564 0 42.666 19.102 42.666 42.666v213.334c0.002 5.116-0.918 10.19-2.714 14.98zM85.334 810.666h512v-128c0-165.108-133.558-298.666-298.666-298.666h-213.334v426.666zM213.334 85.334c-23.582 0-42.666 19.084-42.666 42.666s19.084 42.666 42.666 42.666 42.666-19.084 42.666-42.666-19.084-42.666-42.666-42.666zM810.666 85.334c-23.582 0-42.666 19.084-42.666 42.666 0 23.564 19.108 42.666 42.666 42.666s42.666-19.102 42.666-42.666c0.002-23.582-19.082-42.666-42.666-42.666zM938.666 170.666h-7.284c-0.076 0.216-0.164 0.428-0.242 0.644-0.256 0.71-0.526 1.412-0.794 2.116-0.406 1.068-0.822 2.132-1.256 3.186-0.306 0.746-0.616 1.488-0.936 2.228-0.452 1.044-0.924 2.078-1.404 3.108-0.318 0.684-0.626 1.374-0.956 2.050-0.766 1.572-1.56 3.128-2.388 4.664-0.36 0.666-0.742 1.316-1.112 1.974-0.538 0.958-1.080 1.914-1.642 2.856-0.45 0.756-0.914 1.5-1.38 2.244-0.52 0.832-1.048 1.658-1.588 2.476-0.494 0.75-0.988 1.498-1.496 2.238-0.57 0.828-1.158 1.642-1.746 2.456-0.498 0.688-0.984 1.384-1.494 2.062-1.010 1.338-2.046 2.656-3.106 3.952-0.574 0.704-1.17 1.388-1.76 2.078-0.604 0.708-1.21 1.416-1.828 2.112-0.628 0.706-1.268 1.402-1.912 2.094-0.616 0.662-1.242 1.314-1.872 1.964-0.656 0.674-1.31 1.35-1.98 2.010-0.698 0.688-1.416 1.358-2.13 2.030-1.062 1-2.14 1.982-3.236 2.946-0.798 0.7-1.592 1.404-2.406 2.084-0.71 0.594-1.438 1.17-2.162 1.748-0.72 0.576-1.442 1.148-2.174 1.708-0.742 0.568-1.49 1.128-2.246 1.68-0.764 0.558-1.538 1.104-2.314 1.646-0.736 0.514-1.468 1.032-2.214 1.53-1.074 0.716-2.164 1.406-3.26 2.090-0.98 0.612-1.968 1.206-2.966 1.792-0.96 0.564-1.922 1.126-2.898 1.666-0.75 0.414-1.512 0.814-2.272 1.214-0.912 0.48-1.828 0.95-2.752 1.408-0.762 0.378-1.526 0.752-2.296 1.116-1.020 0.48-2.052 0.94-3.086 1.394-0.678 0.298-1.35 0.608-2.036 0.894-1.646 0.69-3.31 1.346-4.992 1.968-0.606 0.224-1.22 0.424-1.83 0.64-1.19 0.42-2.384 0.83-3.588 1.214-0.722 0.23-1.448 0.448-2.176 0.666-1.154 0.346-2.316 0.674-3.484 0.988-0.7 0.188-1.398 0.378-2.102 0.554-1.424 0.356-2.858 0.684-4.3 0.992-0.44 0.094-0.876 0.204-1.318 0.294-1.864 0.378-3.744 0.71-5.636 1.006-0.578 0.090-1.162 0.162-1.742 0.244-1.376 0.196-2.76 0.376-4.15 0.528-0.682 0.074-1.368 0.142-2.052 0.206-1.376 0.128-2.758 0.23-4.146 0.316-0.62 0.038-1.238 0.082-1.86 0.112-1.99 0.092-3.988 0.152-6 0.152s-4.010-0.060-6-0.152c-0.622-0.028-1.24-0.074-1.86-0.112-1.388-0.084-2.77-0.188-4.146-0.316-0.686-0.064-1.37-0.13-2.054-0.206-1.39-0.152-2.772-0.33-4.148-0.526-0.58-0.082-1.164-0.154-1.744-0.244-1.892-0.296-3.772-0.628-5.636-1.006-0.442-0.090-0.878-0.198-1.32-0.294-1.442-0.308-2.876-0.636-4.298-0.992-0.706-0.176-1.404-0.368-2.104-0.556-1.168-0.314-2.328-0.642-3.482-0.988-0.728-0.218-1.454-0.436-2.176-0.666-1.204-0.384-2.398-0.794-3.586-1.214-0.61-0.216-1.228-0.416-1.834-0.64-1.68-0.622-3.344-1.278-4.99-1.966-0.686-0.288-1.36-0.598-2.040-0.896-1.032-0.454-2.062-0.912-3.080-1.392-0.772-0.364-1.536-0.738-2.3-1.118-0.924-0.458-1.838-0.928-2.75-1.408-0.76-0.4-1.522-0.798-2.272-1.214-0.974-0.538-1.934-1.1-2.892-1.662-1.004-0.59-2.002-1.188-2.988-1.804-1.090-0.68-2.174-1.366-3.242-2.078-0.748-0.5-1.482-1.018-2.218-1.534-0.776-0.542-1.548-1.086-2.31-1.644-0.756-0.552-1.504-1.112-2.246-1.68-0.732-0.56-1.454-1.132-2.174-1.708-0.724-0.58-1.45-1.154-2.162-1.748-0.812-0.678-1.602-1.378-2.396-2.076-1.102-0.97-2.188-1.958-3.256-2.964-0.71-0.668-1.422-1.334-2.118-2.018-0.672-0.662-1.326-1.338-1.982-2.014-0.63-0.648-1.254-1.3-1.87-1.962-0.646-0.692-1.284-1.39-1.914-2.096-0.618-0.694-1.222-1.398-1.824-2.106-0.59-0.692-1.188-1.378-1.762-2.082-1.060-1.298-2.098-2.616-3.108-3.954-0.508-0.674-0.992-1.366-1.486-2.050-0.592-0.818-1.182-1.636-1.754-2.466-0.508-0.738-1-1.484-1.492-2.234-0.538-0.82-1.068-1.646-1.588-2.478-0.466-0.744-0.93-1.49-1.38-2.244-0.564-0.944-1.106-1.902-1.644-2.86-0.368-0.656-0.75-1.304-1.108-1.966-0.828-1.538-1.624-3.094-2.39-4.67-0.328-0.676-0.636-1.362-0.954-2.044-0.48-1.032-0.954-2.066-1.406-3.112-0.32-0.738-0.63-1.48-0.934-2.224-0.434-1.056-0.852-2.12-1.258-3.19-0.268-0.704-0.538-1.404-0.794-2.114-0.078-0.216-0.166-0.428-0.242-0.644h-355.9c-0.092 0.262-0.198 0.518-0.292 0.78-0.204 0.566-0.422 1.126-0.634 1.688-0.47 1.248-0.958 2.488-1.466 3.718-0.246 0.594-0.492 1.186-0.746 1.774-0.556 1.29-1.136 2.566-1.732 3.834-0.214 0.454-0.418 0.914-0.636 1.366-0.82 1.692-1.674 3.364-2.566 5.012-0.178 0.328-0.368 0.648-0.55 0.976-0.732 1.326-1.484 2.638-2.262 3.934-0.32 0.532-0.648 1.058-0.974 1.584-0.688 1.11-1.392 2.208-2.112 3.296-0.342 0.516-0.682 1.034-1.032 1.544-0.848 1.24-1.718 2.46-2.608 3.668-0.224 0.302-0.436 0.612-0.662 0.914-1.118 1.49-2.27 2.954-3.452 4.392-0.314 0.382-0.64 0.754-0.958 1.132-0.892 1.062-1.798 2.112-2.724 3.146-0.422 0.472-0.85 0.936-1.28 1.402-0.888 0.962-1.792 1.906-2.708 2.84-0.414 0.422-0.824 0.846-1.242 1.262-1.224 1.212-2.47 2.404-3.742 3.566-0.106 0.096-0.206 0.198-0.312 0.294-1.38 1.252-2.794 2.468-4.228 3.662-0.428 0.356-0.868 0.702-1.302 1.052-1.036 0.84-2.084 1.664-3.146 2.472-0.506 0.384-1.016 0.766-1.528 1.144-1.084 0.798-2.184 1.578-3.294 2.342-0.45 0.31-0.892 0.626-1.346 0.93-1.552 1.040-3.122 2.054-4.722 3.026-0.202 0.124-0.412 0.238-0.616 0.36-1.406 0.844-2.83 1.664-4.27 2.454-0.532 0.292-1.070 0.572-1.606 0.858-1.158 0.616-2.328 1.214-3.506 1.796-0.572 0.282-1.144 0.562-1.722 0.836-1.292 0.612-2.596 1.198-3.91 1.768-0.434 0.188-0.862 0.386-1.298 0.57-1.74 0.732-3.5 1.426-5.28 2.080-0.402 0.148-0.81 0.28-1.212 0.424-1.398 0.5-2.806 0.978-4.226 1.43-0.608 0.194-1.22 0.376-1.832 0.56-1.278 0.386-2.564 0.75-3.86 1.096-0.608 0.162-1.214 0.328-1.826 0.482-1.556 0.39-3.122 0.75-4.7 1.084-0.322 0.068-0.64 0.148-0.962 0.214-1.894 0.384-3.804 0.722-5.728 1.022-0.536 0.084-1.078 0.15-1.618 0.226-1.414 0.202-2.834 0.386-4.264 0.542-0.666 0.072-1.336 0.138-2.006 0.2-1.388 0.13-2.782 0.234-4.182 0.318-0.614 0.038-1.226 0.082-1.842 0.11-1.992 0.092-3.99 0.152-6.004 0.152s-4.014-0.060-6.004-0.152c-0.616-0.028-1.228-0.074-1.842-0.11-1.4-0.084-2.794-0.188-4.182-0.318-0.67-0.062-1.338-0.128-2.006-0.2-1.43-0.156-2.85-0.338-4.264-0.542-0.538-0.078-1.080-0.144-1.618-0.226-1.924-0.3-3.834-0.638-5.728-1.022-0.322-0.066-0.638-0.146-0.96-0.214-1.578-0.334-3.146-0.694-4.702-1.084-0.612-0.154-1.218-0.32-1.826-0.482-1.294-0.346-2.582-0.71-3.86-1.096-0.612-0.184-1.224-0.368-1.832-0.56-1.42-0.452-2.828-0.93-4.226-1.43-0.404-0.144-0.812-0.276-1.212-0.424-1.78-0.656-3.54-1.35-5.28-2.082-0.434-0.182-0.86-0.38-1.292-0.568-1.316-0.57-2.622-1.158-3.916-1.77-0.576-0.272-1.146-0.554-1.718-0.834-1.182-0.582-2.352-1.182-3.512-1.798-0.534-0.284-1.070-0.564-1.6-0.854-1.442-0.792-2.866-1.61-4.274-2.456-0.204-0.122-0.412-0.236-0.614-0.358-1.6-0.974-3.17-1.988-4.724-3.028-0.452-0.304-0.894-0.62-1.342-0.928-1.112-0.766-2.212-1.544-3.296-2.344-0.512-0.376-1.020-0.758-1.526-1.142-1.064-0.808-2.112-1.634-3.15-2.476-0.432-0.35-0.87-0.694-1.298-1.050-1.434-1.194-2.848-2.41-4.228-3.662-0.102-0.092-0.198-0.19-0.3-0.282-1.276-1.166-2.526-2.362-3.754-3.578-0.418-0.414-0.826-0.836-1.236-1.256-0.918-0.936-1.824-1.884-2.714-2.848-0.428-0.464-0.854-0.926-1.274-1.396-0.928-1.036-1.838-2.088-2.732-3.154-0.316-0.376-0.64-0.744-0.95-1.124-1.182-1.44-2.334-2.904-3.454-4.394-0.224-0.3-0.438-0.608-0.66-0.91-0.89-1.21-1.764-2.432-2.612-3.674-0.348-0.508-0.686-1.024-1.028-1.538-0.722-1.090-1.428-2.19-2.118-3.304-0.326-0.526-0.654-1.050-0.972-1.58-0.778-1.296-1.53-2.608-2.262-3.934-0.18-0.326-0.372-0.646-0.55-0.976-0.892-1.65-1.746-3.322-2.568-5.016-0.218-0.448-0.42-0.906-0.634-1.358-0.598-1.27-1.178-2.548-1.736-3.84-0.254-0.588-0.5-1.18-0.746-1.774-0.508-1.23-0.996-2.47-1.466-3.718-0.212-0.562-0.43-1.122-0.634-1.688-0.094-0.262-0.2-0.518-0.292-0.78h-7.278v128h213.334c3.208 0 6.404 0.044 9.592 0.122 1.068 0.026 2.128 0.078 3.192 0.112 2.12 0.070 4.238 0.138 6.348 0.24 1.26 0.062 2.514 0.148 3.772 0.222 1.904 0.112 3.81 0.222 5.706 0.36 1.338 0.098 2.672 0.218 4.006 0.332 1.808 0.152 3.616 0.304 5.416 0.48 1.368 0.134 2.73 0.286 4.094 0.436 1.758 0.192 3.514 0.386 5.264 0.6 1.378 0.17 2.754 0.354 4.128 0.538 1.726 0.232 3.452 0.468 5.17 0.722 1.38 0.204 2.754 0.418 4.13 0.636 1.702 0.27 3.4 0.55 5.094 0.842 1.376 0.238 2.748 0.482 4.118 0.734 1.688 0.31 3.372 0.634 5.054 0.968 1.354 0.268 2.708 0.538 4.058 0.822 1.69 0.354 3.372 0.724 5.054 1.098 1.328 0.296 2.658 0.592 3.982 0.902 1.698 0.398 3.386 0.816 5.076 1.238 1.292 0.322 2.584 0.638 3.87 0.972 1.732 0.45 3.454 0.926 5.176 1.4 1.228 0.338 2.458 0.666 3.68 1.016 1.808 0.518 3.604 1.062 5.4 1.604 1.124 0.34 2.254 0.666 3.374 1.016 2.060 0.644 4.104 1.318 6.148 1.994 0.84 0.278 1.686 0.54 2.522 0.824 2.876 0.974 5.738 1.98 8.584 3.020 0.526 0.192 1.044 0.398 1.568 0.594 2.316 0.858 4.626 1.728 6.922 2.63 1.008 0.396 2.006 0.814 3.010 1.218 1.8 0.724 3.6 1.448 5.384 2.198 1.132 0.476 2.252 0.972 3.378 1.458 1.64 0.708 3.282 1.416 4.912 2.146 1.182 0.53 2.352 1.078 3.526 1.618 1.56 0.72 3.12 1.438 4.668 2.178 1.194 0.57 2.38 1.154 3.568 1.736 1.514 0.742 3.024 1.486 4.526 2.248 1.196 0.606 2.384 1.222 3.57 1.84 1.476 0.768 2.948 1.54 4.412 2.326 1.188 0.638 2.372 1.284 3.554 1.934 1.452 0.798 2.896 1.606 4.336 2.424 1.168 0.662 2.332 1.33 3.492 2.004 1.438 0.836 2.866 1.682 4.292 2.536 1.144 0.686 2.288 1.372 3.426 2.070 1.426 0.874 2.842 1.762 4.256 2.656 1.114 0.704 2.23 1.404 3.336 2.12 1.426 0.922 2.84 1.86 4.254 2.8 1.072 0.712 2.146 1.42 3.212 2.142 1.45 0.984 2.884 1.99 4.32 2.994 1.008 0.704 2.020 1.4 3.020 2.114 1.526 1.088 3.034 2.2 4.542 3.312 0.888 0.654 1.786 1.296 2.668 1.958 1.826 1.37 3.632 2.764 5.434 4.164 0.546 0.424 1.102 0.838 1.646 1.266 2.338 1.838 4.652 3.702 6.946 5.592 0.606 0.5 1.198 1.014 1.802 1.518 1.68 1.402 3.356 2.806 5.012 4.236 0.844 0.73 1.672 1.476 2.51 2.212 1.394 1.226 2.79 2.45 4.166 3.696 0.914 0.828 1.812 1.67 2.718 2.506 1.278 1.178 2.556 2.356 3.816 3.552 0.936 0.886 1.858 1.786 2.784 2.682 1.212 1.172 2.422 2.346 3.618 3.534 0.932 0.926 1.854 1.862 2.776 2.796 1.166 1.182 2.33 2.368 3.48 3.564 0.922 0.96 1.836 1.926 2.748 2.896 1.128 1.198 2.25 2.4 3.362 3.612 0.906 0.986 1.806 1.978 2.7 2.974 1.098 1.22 2.186 2.448 3.268 3.684 0.882 1.006 1.76 2.014 2.63 3.030 1.074 1.252 2.138 2.514 3.196 3.78 0.852 1.018 1.702 2.038 2.544 3.064 1.056 1.29 2.098 2.594 3.138 3.898 0.816 1.024 1.634 2.046 2.44 3.078 1.050 1.344 2.080 2.702 3.112 4.060 0.768 1.012 1.542 2.020 2.3 3.040 1.062 1.426 2.102 2.87 3.144 4.312 0.702 0.972 1.414 1.938 2.108 2.918 1.122 1.582 2.218 3.184 3.316 4.784 0.588 0.858 1.188 1.706 1.77 2.57 1.468 2.178 2.908 4.374 4.332 6.584 0.192 0.298 0.392 0.59 0.584 0.89 1.608 2.512 3.188 5.044 4.738 7.594 0.486 0.8 0.954 1.612 1.436 2.416 1.054 1.76 2.106 3.522 3.132 5.3 0.584 1.012 1.148 2.038 1.722 3.056 0.896 1.586 1.792 3.172 2.666 4.772 0.606 1.11 1.194 2.232 1.79 3.35 0.814 1.528 1.63 3.056 2.424 4.596 0.602 1.166 1.186 2.34 1.776 3.512 0.76 1.51 1.516 3.022 2.258 4.546 0.584 1.202 1.156 2.412 1.73 3.622 0.716 1.514 1.428 3.028 2.124 4.552 0.562 1.228 1.112 2.46 1.662 3.694 0.678 1.524 1.348 3.054 2.006 4.59 0.534 1.246 1.062 2.496 1.584 3.75 0.642 1.542 1.272 3.090 1.894 4.642 0.506 1.26 1.008 2.522 1.5 3.79 0.608 1.566 1.202 3.14 1.792 4.716 0.472 1.264 0.946 2.53 1.404 3.8 0.582 1.608 1.144 3.224 1.704 4.842 0.434 1.252 0.872 2.502 1.292 3.76 0.558 1.666 1.092 3.342 1.628 5.018 0.392 1.226 0.792 2.45 1.172 3.682 0.544 1.768 1.062 3.546 1.582 5.324 0.336 1.152 0.684 2.296 1.010 3.452 0.566 2.004 1.098 4.020 1.632 6.036 0.25 0.946 0.516 1.886 0.758 2.834 0.76 2.968 1.488 5.948 2.18 8.942 0.076 0.33 0.142 0.662 0.216 0.992 0.608 2.67 1.194 5.346 1.748 8.036 0.214 1.046 0.406 2.1 0.612 3.148 0.39 1.984 0.782 3.966 1.14 5.96 0.22 1.226 0.418 2.46 0.628 3.69 0.312 1.83 0.624 3.66 0.91 5.5 0.204 1.308 0.386 2.624 0.574 3.936 0.256 1.772 0.512 3.546 0.744 5.326 0.178 1.358 0.336 2.72 0.5 4.084 0.138 1.16 0.296 2.312 0.424 3.476h143.438l64-170.666h-119.75v42.662c0 23.564-19.102 42.666-42.666 42.666s-42.666-19.102-42.666-42.666v-85.334c0-23.564 19.102-42.666 42.666-42.666h194.432l18.902-50.404v-162.93zM213.334 640h213.334c23.564 0 42.666 19.102 42.666 42.666s-19.102 42.666-42.666 42.666h-213.334c-23.564 0-42.666-19.102-42.666-42.666-0.002-23.564 19.102-42.666 42.666-42.666zM469.334 512c0 23.564-19.102 42.666-42.666 42.666h-213.334c-23.564 0-42.666-19.102-42.666-42.666s19.102-42.666 42.666-42.666h213.334c23.562 0 42.666 19.102 42.666 42.666z" />
<glyph unicode="&#xe910;" glyph-name="restaurant" d="M974.166 770.335l-78.168 117.252v29.748c0 23.564-19.102 42.666-42.666 42.666h-682.665c-23.564 0-42.666-19.102-42.666-42.666v-29.748l-78.168-117.252c-4.672-7.008-7.166-15.244-7.166-23.668v-85.334c0-37.762 16.51-71.782 42.666-95.246v-587.418c0-23.564 19.102-42.666 42.666-42.666h170.583c0.028 0 0.054-0.004 0.082-0.004h213.333c0.028 0 0.054 0.004 0.082 0.004h383.917c23.564 0 42.666 19.102 42.666 42.666v587.418c26.156 23.464 42.666 57.484 42.666 95.246v85.334c0.004 8.424-2.49 16.66-7.162 23.668zM128.001 733.749l78.168 117.252c4.672 7.008 7.166 15.244 7.166 23.668h597.332c0-8.424 2.494-16.658 7.166-23.668l78.168-117.252v-72.414c0-14.364-7.306-27.168-18.352-34.918-1.068-0.514-2.128-1.060-3.178-1.674-5.794-3.386-11.738-5.35-17.722-5.898-1.13-0.092-2.264-0.176-3.416-0.176-23.37 0-42.666 19.298-42.666 42.666v85.334h-85.334v-85.334c0-23.37-19.298-42.666-42.666-42.666-23.37 0-42.666 19.298-42.666 42.666v85.334h-85.334v-85.334c0-23.37-19.298-42.666-42.666-42.666s-42.666 19.298-42.666 42.666v85.334h-85.334v-85.334c0-23.37-19.298-42.666-42.666-42.666-23.37 0-42.666 19.298-42.666 42.666v85.334h-85.334v-85.334c0-23.37-19.298-42.666-42.666-42.666-1.152 0-2.286 0.084-3.416 0.176-5.982 0.548-11.928 2.512-17.722 5.898-1.050 0.614-2.112 1.16-3.178 1.674-11.044 7.752-18.352 20.556-18.352 34.918v72.414zM469.334 21.338h-128v298.661h128v-298.661zM853.333 21.338h-298.667v341.327c0 23.564-19.102 42.666-42.666 42.666h-213.333c-23.564 0-42.666-19.102-42.666-42.666v-341.329h-85.334v511.998c32.73 0 62.66 12.394 85.334 32.73 22.674-20.336 52.604-32.73 85.334-32.73s62.66 12.394 85.334 32.73c22.674-20.336 52.604-32.73 85.334-32.73s62.66 12.394 85.334 32.73c22.674-20.336 52.604-32.73 85.334-32.73s62.66 12.394 85.334 32.73c22.674-20.336 52.604-32.73 85.334-32.73v-511.996zM597.334 405.332h213.333v-255.999h-213.333v255.999z" />
<glyph unicode="&#xe911;" glyph-name="quote" d="M0 374.857h219.428l-146.287-292.57h219.428l146.287 292.57v438.857h-438.857zM585.143 813.713v-438.857h219.428l-146.287-292.57h219.428l146.287 292.57v438.857z" />
<glyph unicode="&#xe912;" glyph-name="right" d="M796.462 487.956l-455.693 455.685c-10.54 10.548-24.609 16.359-39.611 16.359s-29.071-5.811-39.611-16.359l-33.559-33.55c-21.837-21.862-21.837-57.393 0-79.222l382.657-382.657-383.081-383.081c-10.54-10.548-16.359-24.609-16.359-39.603 0-15.010 5.819-29.071 16.359-39.628l33.559-33.542c10.548-10.548 24.609-16.359 39.611-16.359s29.071 5.811 39.611 16.359l456.118 456.101c10.565 10.581 16.367 24.709 16.334 39.728 0.033 15.077-5.769 29.196-16.334 39.769z" />
<glyph unicode="&#xe913;" glyph-name="down" d="M1007.633 699.864l-33.543 33.776c-10.556 10.548-24.601 16.359-39.612 16.359-15.002 0-29.064-5.811-39.62-16.359l-382.629-382.646-383.071 383.071c-10.54 10.548-24.601 16.351-39.603 16.351s-29.072-5.803-39.62-16.351l-33.551-33.567c-21.846-21.829-21.846-57.386 0-79.215l456.092-457.732c10.54-10.54 24.585-17.966 39.72-17.966h0.175c15.010 0 29.055 7.434 39.595 17.966l455.667 456.491c10.556 10.54 16.351 25.009 16.367 40.011 0 15.010-5.811 29.28-16.367 39.811z" />
<glyph unicode="&#xe914;" glyph-name="up" d="M1007.629 276.352l-456.111 456.103c-10.54 10.54-24.593 16.326-39.903 16.326-15.002 0-29.063-5.786-39.586-16.326l-455.686-455.67c-10.54-10.548-16.342-24.609-16.342-39.611s5.794-29.071 16.342-39.611l33.559-33.559c10.54-10.54 24.609-16.359 39.611-16.359s29.063 5.819 39.611 16.359l382.65 382.65 383.074-383.091c10.54-10.531 24.601-16.342 39.611-16.342 15.002 0 29.055 5.811 39.603 16.342l33.567 33.575c21.829 21.837 21.829 57.377 0 79.214z" />
<glyph unicode="&#xe915;" glyph-name="arrow-up" d="M921.24 574.152l-369.522 369.522c-10.54 10.54-24.601 16.326-39.894 16.326-14.994 0-29.047-5.786-39.586-16.326l-369.531-369.522c-21.829-21.837-21.829-57.377 0-79.198l33.551-33.567c10.54-10.531 24.601-16.326 39.603-16.326 14.994 0 29.538 5.794 40.069 16.326l216.056 215.589v-684.923c0-30.87 24.176-56.054 55.046-56.054h47.454c30.87 0 57.494 25.184 57.494 56.054v687.354l217.279-218.020c10.531-10.531 24.218-16.326 39.22-16.326s28.855 5.794 39.403 16.326l33.451 33.567c21.837 21.829 21.754 57.361-0.092 79.198z" />
<glyph unicode="&#xe916;" glyph-name="arrow-right" d="M1007.633 487.786l-369.803 369.811c-10.556 10.556-24.626 16.351-39.628 16.351-15.019 0-29.080-5.803-39.636-16.351l-33.575-33.584c-10.548-10.54-16.359-24.617-16.359-39.628 0-15.002 5.811-29.554 16.359-40.094l215.738-216.212h-685.408c-30.903 0-55.321-24.193-55.321-55.104v-47.478c0-30.911 24.418-57.543 55.321-57.543h687.856l-218.177-217.419c-10.548-10.556-16.359-24.251-16.359-39.261 0-14.994 5.811-28.888 16.359-39.436l33.575-33.475c10.556-10.556 24.617-16.309 39.636-16.309 15.002 0 29.071 5.828 39.628 16.384l369.803 369.803c10.581 10.59 16.401 24.726 16.359 39.753 0.033 15.077-5.778 29.221-16.367 39.794z" />
<glyph unicode="&#xe917;" glyph-name="minus" d="M984 488h-944c-22.092 0-40-17.908-40-40s17.908-40 40-40h944c22.092 0 40 17.908 40 40s-17.908 40-40 40z" />
<glyph unicode="&#xe918;" glyph-name="plus" d="M984 488h-432v432c0 22.092-17.908 40-40 40s-40-17.908-40-40v-432h-432c-22.092 0-40-17.908-40-40s17.908-40 40-40h432v-432c0-22.092 17.908-40 40-40s40 17.908 40 40v432h432c22.092 0 40 17.908 40 40s-17.908 40-40 40z" />
<glyph unicode="&#xe919;" glyph-name="close-bold" d="M680.959 447.968l316.788 316.788c35.002 35.002 35.002 91.748 0 126.695l-42.232 42.232c-35.013 35.013-91.759 35.013-126.706 0l-316.777-316.777-316.788 316.842c-35.002 35.002-91.748 35.002-126.695 0l-42.297-42.232c-35.002-35.013-35.002-91.759 0-126.706l316.842-316.842-316.777-316.777c-35.013-35.013-35.013-91.759 0-126.706l42.232-42.232c35.002-35.002 91.748-35.002 126.695 0l316.788 316.788 316.777-316.788c35.013-35.002 91.759-35.002 126.706 0l42.232 42.232c35.002 35.013 35.002 91.759 0 126.706z" />
<glyph unicode="&#xe91a;" glyph-name="close" d="M624.782 448l382.859 382.876c10.531 10.54 16.342 24.601 16.359 39.595 0 15.002-5.811 29.080-16.359 39.603l-33.551 33.542c-10.548 10.565-24.609 16.351-39.62 16.351-14.985 0-29.047-5.786-39.595-16.351l-382.859-382.851-382.876 382.851c-10.531 10.565-24.601 16.351-39.603 16.351-14.985 0-29.055-5.786-39.586-16.351l-33.567-33.542c-21.845-21.845-21.845-57.377 0-79.198l382.868-382.876-382.868-382.859c-10.54-10.556-16.342-24.618-16.342-39.611s5.803-29.055 16.342-39.603l33.559-33.542c10.531-10.556 24.609-16.351 39.586-16.351 15.002 0 29.072 5.794 39.603 16.351l382.876 382.859 382.859-382.859c10.548-10.556 24.609-16.351 39.595-16.351h0.017c14.994 0 29.055 5.794 39.603 16.351l33.551 33.542c10.531 10.54 16.342 24.609 16.342 39.603s-5.811 29.055-16.342 39.603l-382.851 382.868z" />
<glyph unicode="&#xe91b;" glyph-name="error" d="M884 424.18v410.82c0 30.328-24.672 55-55 55h-774c-30.328 0-55-24.672-55-55v-622c0-30.328 24.672-55 55-55h78.336c8.281 0 15 6.719 15 15s-6.719 15-15 15h-78.336c-13.789 0-25 11.211-25 25v541h824v-320.945c-14.828 3.227-30.219 4.945-46 4.945-40.563 0-78.539-11.242-111-30.773v168.773c0 8.281-6.711 15-15 15s-15-6.719-15-15v-106h-85c-2.758 0-5 2.242-5 5v101c0 8.281-6.711 15-15 15s-15-6.719-15-15v-101c0-19.297 15.703-35 35-35h85v-53.391c0-0.359 0.031-0.711 0.055-1.063-39.742-34.305-66.883-82.805-73.484-137.547h-503.57v446h704v-201c0-8.281 6.711-15 15-15s15 6.719 15 15v206c0 13.789-11.211 25-25 25h-714c-13.789 0-25-11.211-25-25v-456c0-13.789 11.211-25 25-25h507.047c0.188-10.188 1.078-20.203 2.641-30h-391.352c-8.289 0-15-6.719-15-15s6.711-15 15-15h398.344c27.344-87.953 109.492-152 206.32-152 119.102 0 216 96.898 216 216 0 92.367-58.281 171.367-140 202.18zM30 784v51c0 13.789 11.211 25 25 25h774c13.789 0 25-11.211 25-25v-51zM808 36c-102.563 0-186 83.438-186 186s83.438 186 186 186 186-83.438 186-186-83.438-186-186-186zM88 840c-9.93 0-18-8.078-18-18s8.070-18 18-18 18 8.078 18 18-8.070 18-18 18zM164 840c-9.93 0-18-8.078-18-18s8.070-18 18-18 18 8.078 18 18-8.070 18-18 18zM240 840c-9.93 0-18-8.078-18-18s8.070-18 18-18 18 8.078 18 18-8.070 18-18 18zM322 349c8.289 0 15 6.719 15 15v212c0 8.281-6.711 15-15 15s-15-6.719-15-15v-106h-85c-2.758 0-5 2.242-5 5v101c0 8.281-6.711 15-15 15s-15-6.719-15-15v-101c0-19.297 15.703-35 35-35h85v-76c0-8.281 6.711-15 15-15zM402 590c-19.297 0-35-15.703-35-35v-170c0-19.297 15.703-35 35-35h80c19.297 0 35 15.703 35 35v170c0 19.297-15.703 35-35 35zM487 555v-170c0-2.758-2.242-5-5-5h-80c-2.758 0-5 2.242-5 5v170c0 2.758 2.242 5 5 5h80c2.758 0 5-2.242 5-5zM442 515c-8.289 0-15-6.719-15-15v-60c0-8.281 6.711-15 15-15s15 6.719 15 15v60c0 8.281-6.711 15-15 15zM721 277.648c-8.289 0-15-6.719-15-15v-46c0-8.281 6.711-15 15-15s15 6.719 15 15v46c0 8.281-6.711 15-15 15zM895 277.648c-8.289 0-15-6.719-15-15v-46c0-8.281 6.711-15 15-15s15 6.719 15 15v46c0 8.281-6.711 15-15 15zM808 195.648c-23.445 0-45.219-10.578-59.742-29.016-5.125-6.508-4-15.938 2.508-21.063s15.945-4.008 21.063 2.5c8.797 11.172 21.977 17.578 36.172 17.578s27.375-6.406 36.172-17.578c2.961-3.758 7.359-5.719 11.797-5.719 3.242 0 6.516 1.047 9.266 3.211 6.508 5.125 7.633 14.555 2.508 21.070-14.516 18.438-36.289 29.016-59.742 29.016z" />
<glyph unicode="&#xe91c;" glyph-name="menu" d="M0 220.445h1024v-113.779h-1024v113.779zM0 504.888h1024v-113.779h-1024v113.779zM0 789.333h1024v-113.779h-1024v113.779z" />
<glyph unicode="&#xe91d;" glyph-name="check" d="M0 415.331l350.663-351.332 673.337 672.672-96.669 95.332-576.669-576-255.333 255.331z" />
<glyph unicode="&#xe91e;" glyph-name="interface" d="M699.705 835.607c-21.594 9.434-46.746-0.424-56.18-22.018s0.424-46.746 22.018-56.18c138.825-60.648 230.458-197.956 230.458-352.073 0-212.070-171.945-384.003-384.003-384.003-212.086 0-384.003 171.917-384.003 384.003 0 154.083 91.601 291.39 230.386 352.079 21.59 9.44 31.44 34.596 21.998 56.186-9.44 21.59-34.596 31.44-56.186 21.998-169.579-74.151-281.53-241.964-281.53-430.261 0-259.214 210.124-469.338 469.338-469.338 259.186 0 469.338 210.138 469.338 469.338 0 188.341-111.997 356.163-281.632 430.269zM511.982 490.662c23.564 0 42.666 19.102 42.666 42.666v384.003c0.002 23.566-19.102 42.668-42.666 42.668s-42.666-19.102-42.666-42.666v-384.003c0-23.564 19.102-42.668 42.666-42.668z" />
<glyph unicode="&#xe91f;" glyph-name="user" d="M836.83 275.957l-7.43 2.408-146.729 33.075v74.76c53.639 48.015 85.336 116.218 85.336 189.792v148.441c0 130.105-105.462 235.567-235.569 235.567h-40.875c-130.105 0-235.567-105.462-235.567-235.567v-148.441c0-73.574 31.695-141.777 85.336-189.792v-74.76l-146.731-33.075-7.43-2.408c-61.767-26.481-101.846-87.26-101.846-154.461v-87.98c0-19.52 13.246-36.551 32.167-41.355l70.572-17.92c212.025-50.969 434.305-50.957 647.276-0.148l71.172 18.068c18.92 4.804 32.167 21.834 32.167 41.355v87.98c0 67.201-40.079 127.981-101.846 154.461zM853.34 66.703l-38.407-9.752c-199.328-47.551-407.991-47.561-606.399 0.13l-37.877 9.62v54.795c0 31.889 18.358 60.863 46.931 74.574l175.79 39.625c19.462 4.386 33.285 21.674 33.285 41.623v128.985c0 13.382-6.278 25.989-16.958 34.053-42.843 32.345-68.375 81.84-68.375 135.637v148.441c0 82.976 67.255 150.233 150.233 150.233h40.875c82.976 0 150.233-67.255 150.233-150.233v-148.441c0-53.797-25.535-103.292-68.375-135.637-10.68-8.064-16.958-20.67-16.958-34.053v-128.985c0-19.95 13.824-37.237 33.285-41.623l175.79-39.625c28.573-13.71 46.931-42.685 46.931-74.574v-54.793z" />
<glyph unicode="&#xe920;" glyph-name="chat" d="M770.034 960h-516.067c-140.25 0-253.938-113.688-253.938-253.938v-260.081c0-140.25 113.688-253.938 253.938-253.938h44.711v-213.322c0-45.865 62.48-59.425 81.491-17.685 22.269 48.893 58.017 95.257 103.678 138.15 29.328 27.55 60.903 51.967 92.457 72.876 13.067 8.658 23.997 15.351 32.030 19.979h161.701c140.25 0 253.938 113.688 253.938 253.938v260.083c-0.002 140.25-113.692 253.938-253.94 253.938zM938.643 445.981c0-93.125-75.486-168.608-168.608-168.608h-172.704c-6.9 0-13.697-1.674-19.809-4.878-10.143-5.318-26.992-15.149-48.349-29.3-35.334-23.413-70.646-50.721-103.746-81.813-14.655-13.767-28.49-27.914-41.418-42.446v115.773c0 23.563-19.101 42.664-42.664 42.664h-87.377c-93.125 0-168.608 75.486-168.608 168.608v260.081c0 93.125 75.486 168.608 168.608 168.608h516.067c93.125 0 168.608-75.486 168.608-168.608v-260.081z" />
<glyph unicode="&#xe921;" glyph-name="star" d="M1021.322 567.236c-6.742 20.735-25.133 35.415-46.805 37.376l-295.599 26.836-116.822 273.505c-8.625 20.094-28.25 33.063-50.095 33.063s-41.477-12.969-50.048-33.063l-116.822-273.505-295.646-26.836c-21.672-2-40.024-16.68-46.805-37.376-6.742-20.735-0.516-43.477 15.875-57.853l223.449-195.933-65.884-290.177c-4.82-21.336 3.461-43.399 21.164-56.196 9.516-6.914 20.696-10.367 31.915-10.367 9.641 0 19.289 2.563 27.907 7.719l254.895 152.409 254.848-152.409c18.696-11.172 42.204-10.149 59.868 2.648 17.703 12.797 25.985 34.86 21.164 56.196l-65.884 290.177 223.449 195.933c16.383 14.375 22.618 37.071 15.875 57.853z" />
<glyph unicode="&#xe922;" glyph-name="alert" d="M1007.676 169.244l-391.399 677.923c-21.764 37.696-60.746 60.204-104.278 60.204-43.53 0-82.514-22.508-104.278-60.204l-391.397-677.921c-21.766-37.7-21.766-82.712 0-120.41s60.746-60.204 104.278-60.204h782.794c43.53 0 82.512 22.508 104.28 60.202 21.766 37.7 21.766 82.712 0 120.41zM955.72 78.83c-10.922-18.916-30.482-30.208-52.324-30.208h-782.794c-21.844 0-41.404 11.292-52.324 30.208s-10.92 41.5 0 60.416l391.401 677.923c10.92 18.916 30.48 30.208 52.322 30.208 21.84 0 41.402-11.292 52.322-30.208l391.399-677.923c10.918-18.916 10.918-41.5-0.002-60.416zM482.001 607.981h59.992v-299.963h-59.992v299.963zM511.999 248.021c-22.054 0-39.996-17.942-39.996-39.996s17.942-39.996 39.996-39.996c22.052 0 39.996 17.942 39.996 39.996s-17.942 39.996-39.996 39.996z" />
<glyph unicode="&#xe923;" glyph-name="inbox" d="M1020.834 557.816l-96.4 192.8c-5.082 10.164-15.47 16.584-26.834 16.584h-771.2c-11.364 0-21.75-6.42-26.834-16.584l-96.4-192.8c-2.082-4.166-3.166-8.76-3.166-13.416v-385.6c0-16.568 13.432-30 30-30h964c16.568 0 30 13.432 30 30v385.6c0 4.656-1.084 9.25-3.166 13.416zM144.942 707.2h734.118l66.4-132.8h-240.66c-16.568 0-30-13.432-30-30 0-89.768-73.032-162.798-162.8-162.798s-162.8 73.032-162.8 162.798c0 16.568-13.432 30-30 30h-240.658l66.4 132.8zM964 188.798l-904 0.002v325.6h231.21c14.702-108.712 108.112-192.8 220.79-192.8s206.088 84.088 220.79 192.798h231.21v-325.6z" />
<glyph unicode="&#xe924;" glyph-name="lock" d="M461.584 251.374l-13.458-121.020c-0.666-6.020 1.27-12.062 5.312-16.584 4.042-4.52 9.834-7.104 15.896-7.104h85.334c6.062 0 11.854 2.584 15.896 7.104s5.98 10.562 5.312 16.584l-13.458 121.020c21.854 15.896 34.916 41.042 34.916 68.626 0 47.062-38.27 85.334-85.334 85.334s-85.334-38.272-85.334-85.334c0-27.584 13.064-52.73 34.918-68.626zM512 362.666c23.52 0 42.666-19.146 42.666-42.666 0-16.354-9.292-31-24.25-38.25-8.146-3.958-12.916-12.584-11.916-21.562l12.334-110.854h-37.666l12.334 110.854c1 8.98-3.77 17.604-11.916 21.562-14.958 7.25-24.25 21.896-24.25 38.25-0.002 23.52 19.144 42.666 42.664 42.666zM874.666 576h-64v85.334c0 164.686-133.978 298.666-298.666 298.666s-298.666-133.98-298.666-298.666v-85.334h-64c-11.792 0-21.334-9.542-21.334-21.334v-533.334c0-47.062 38.27-85.332 85.334-85.332h597.334c47.062 0 85.332 38.27 85.332 85.334v533.332c0 11.792-9.542 21.334-21.334 21.334zM256 661.334c0 141.166 114.834 256 256 256s256-114.834 256-256v-85.334h-42.666v85.334c0 117.626-95.708 213.334-213.334 213.334s-213.334-95.71-213.334-213.334v-85.334h-42.666v85.334zM682.666 661.334v-85.334h-341.332v85.334c0 94.104 76.562 170.666 170.666 170.666s170.666-76.562 170.666-170.666zM853.334 21.334c0-23.52-19.146-42.666-42.666-42.666h-597.334c-23.52 0-42.666 19.146-42.666 42.666v512h682.666v-512z" />
<glyph unicode="&#xe925;" glyph-name="to-up" d="M1019.27-1.93l-469.125 938.25c-15.717 31.434-60.573 31.434-76.29 0l-469.125-938.25c-19.343-38.689 24.549-78.275 61.041-55.053l446.227 283.964 446.227-283.964c36.494-23.222 80.388 16.367 61.045 55.053zM534.896 313.512c-13.97 8.89-31.824 8.89-45.794 0l-339.223-215.87 362.121 724.241 362.121-724.241-339.225 215.87z" />
<glyph unicode="&#xe926;" glyph-name="more" d="M625.779 846.221c0-62.838-50.94-113.779-113.779-113.779s-113.779 50.94-113.779 113.779c0 62.838 50.94 113.779 113.779 113.779s113.779-50.94 113.779-113.779zM625.779 448c0-62.838-50.94-113.779-113.779-113.779s-113.779 50.94-113.779 113.779c0 62.838 50.94 113.779 113.779 113.779s113.779-50.94 113.779-113.779zM625.779 49.779c0-62.838-50.94-113.779-113.779-113.779s-113.779 50.94-113.779 113.779c0 62.838 50.94 113.779 113.779 113.779s113.779-50.94 113.779-113.779z" />
</font>
</defs>
</svg>
