<?xml version="1.0" standalone="no"?>
<!DOCTYPE svg PUBLIC "-//W3C//DTD SVG 20010904//EN"
 "http://www.w3.org/TR/2001/REC-SVG-20010904/DTD/svg10.dtd">
<svg version="1.0" xmlns="http://www.w3.org/2000/svg"
 width="451.000000pt" height="451.000000pt" viewBox="0 0 451.000000 451.000000"
 preserveAspectRatio="xMidYMid meet">
<metadata>
Created by potrace 1.14, written by Peter Selinger 2001-2017
</metadata>
<g transform="translate(0.000000,451.000000) scale(0.100000,-0.100000)"
fill="#000000" stroke="none">
<path d="M1969 4116 c-2 -3 -41 -7 -86 -10 -46 -3 -102 -10 -125 -15 -23 -5
-46 -8 -50 -5 -4 3 -8 1 -8 -4 0 -5 -6 -9 -12 -9 -30 -2 -93 -16 -98 -22 -3
-3 -10 -7 -16 -8 -49 -9 -62 -12 -84 -21 -14 -5 -28 -10 -32 -11 -5 0 -9 -1
-10 -2 -12 -3 -47 -11 -66 -14 -13 -2 -29 -9 -37 -15 -8 -7 -15 -9 -15 -5 0 4
-7 2 -15 -5 -8 -7 -15 -9 -15 -5 0 3 -17 -4 -37 -17 -21 -12 -38 -21 -38 -19
0 2 -20 -5 -45 -16 -68 -30 -84 -36 -92 -35 -5 1 -8 -3 -8 -9 0 -5 -4 -8 -9
-5 -5 3 -14 -1 -21 -9 -7 -8 -19 -15 -26 -15 -8 0 -14 -4 -14 -9 0 -5 -13 -14
-29 -21 -16 -6 -38 -20 -50 -31 -12 -11 -21 -18 -21 -15 0 2 -16 -10 -36 -27
-74 -65 -144 -145 -144 -164 0 -7 -5 -13 -11 -13 -5 0 -7 -5 -3 -12 5 -8 2 -9
-11 -4 -15 5 -16 4 -5 -9 8 -10 9 -15 1 -15 -6 0 -11 -7 -11 -15 0 -7 -8 -19
-18 -24 -12 -7 -13 -10 -3 -11 9 0 4 -10 -13 -25 -15 -14 -22 -25 -17 -25 11
0 10 -22 -4 -53 -4 -9 -5 -29 -3 -42 3 -14 1 -25 -4 -25 -5 0 -6 -4 -3 -10 3
-5 8 -29 10 -52 9 -88 30 -166 50 -180 5 -4 6 -8 2 -8 -14 0 66 -143 103 -184
85 -95 140 -143 246 -215 43 -30 81 -58 82 -63 2 -4 7 -8 12 -8 4 0 61 -32
126 -71 66 -40 135 -81 154 -92 103 -58 352 -284 460 -416 19 -24 41 -49 48
-56 6 -8 12 -18 12 -24 0 -6 5 -11 10 -11 6 0 10 -7 10 -15 0 -8 4 -15 8 -15
5 0 14 -10 21 -22 6 -13 20 -36 31 -53 11 -16 23 -37 26 -45 4 -8 13 -22 20
-30 7 -8 14 -19 15 -25 4 -19 24 -60 32 -66 5 -3 8 -9 7 -13 -1 -4 10 -31 24
-60 32 -66 72 -103 114 -104 26 -1 37 7 67 48 19 26 35 50 35 54 0 3 18 35 40
71 22 36 40 70 40 75 0 6 3 10 8 10 4 0 16 17 27 38 11 20 26 43 33 50 6 8 26
35 44 60 47 70 217 273 263 314 6 5 35 31 65 59 30 27 60 49 67 49 6 0 13 4
15 8 2 4 71 55 153 112 83 57 157 110 165 117 33 30 63 53 69 53 3 0 22 14 41
30 19 16 40 33 45 37 6 5 31 25 57 46 26 21 50 37 53 37 3 0 18 12 33 28 15
16 51 50 80 76 29 25 50 46 46 46 -4 0 4 10 17 23 30 28 79 99 79 115 0 7 5
12 10 12 6 0 9 3 8 8 -1 4 5 21 12 37 28 67 38 116 35 174 -1 33 -7 67 -13 73
-6 7 -11 15 -11 18 -1 17 -24 70 -30 70 -3 0 -12 13 -19 28 -33 75 -223 232
-272 224 -3 0 -12 6 -22 14 -12 12 -18 12 -24 3 -5 -8 -3 -10 6 -4 9 5 11 4 6
-4 -6 -9 -11 -9 -22 0 -11 9 -14 8 -14 -2 0 -11 -2 -11 -10 1 -8 13 -10 12
-10 -3 0 -11 -4 -15 -12 -11 -8 5 -9 2 -5 -10 4 -10 3 -15 -3 -11 -17 10 -32
-5 -20 -20 8 -9 6 -14 -7 -19 -15 -6 -15 -8 -3 -16 11 -7 12 -10 2 -10 -7 0
-10 -4 -7 -10 3 -5 0 -10 -7 -10 -8 0 -9 -3 -3 -8 11 -8 15 -52 5 -52 -4 0 -7
-6 -7 -12 0 -20 -12 -84 -23 -130 -6 -24 -12 -51 -15 -61 -2 -9 -7 -23 -12
-30 -4 -6 -8 -18 -9 -25 -2 -8 -10 -22 -18 -31 -9 -10 -16 -25 -16 -35 0 -9
-7 -19 -15 -22 -8 -4 -15 -15 -15 -25 0 -10 -4 -19 -8 -19 -5 0 -14 -11 -20
-25 -7 -14 -18 -33 -24 -41 -30 -36 -176 -184 -182 -184 -4 0 -12 -5 -19 -10
-7 -6 -25 -22 -42 -36 -16 -13 -45 -32 -62 -41 -18 -8 -33 -20 -33 -25 0 -5
-4 -7 -9 -3 -5 3 -16 -1 -23 -9 -15 -14 -58 -31 -71 -28 -5 1 -6 -2 -3 -7 8
-13 -122 -53 -219 -67 -22 -4 -46 -11 -52 -16 -9 -7 -13 -7 -13 1 0 7 -8 8
-24 1 -13 -5 -39 -9 -57 -10 -19 0 -42 -1 -52 -1 -10 0 -15 -5 -11 -11 5 -7 2
-8 -7 -2 -13 8 -30 10 -154 14 -27 1 -55 6 -62 12 -7 6 -14 5 -18 -2 -3 -6
-11 -8 -16 -4 -10 6 -50 15 -89 19 -14 2 -25 4 -25 5 0 2 -13 4 -30 5 -16 2
-30 4 -30 5 0 2 -13 5 -55 14 -13 3 -39 12 -57 21 -18 8 -50 23 -70 32 -21 9
-41 22 -45 27 -4 6 -8 8 -8 4 0 -14 -95 50 -142 97 -50 48 -108 126 -108 144
0 6 -9 27 -20 46 -11 20 -15 33 -9 29 8 -5 9 -3 3 7 -11 17 -13 109 -3 109 4
0 6 9 4 20 -2 11 1 20 7 20 6 0 9 3 5 6 -7 8 29 78 58 113 56 67 208 191 234
191 6 0 11 5 11 10 0 6 3 9 8 9 4 -1 10 0 15 1 4 1 10 3 15 4 4 1 34 10 67 21
33 10 63 19 68 21 4 1 10 3 15 4 4 1 10 2 15 1 4 0 7 4 7 10 0 5 5 7 10 4 6
-3 16 -3 23 2 6 4 21 9 32 11 31 5 50 10 50 12 0 1 18 4 40 5 22 2 42 4 45 5
4 1 70 0 188 -3 12 -1 22 -4 22 -8 0 -4 11 -6 25 -4 14 1 25 -2 25 -6 0 -5 3
-8 8 -7 4 1 17 -3 30 -10 12 -7 22 -10 22 -6 0 9 80 -74 81 -84 3 -34 3 -70
-1 -67 -7 4 -31 -23 -28 -31 2 -4 -6 -12 -17 -18 -11 -6 -26 -18 -33 -26 -12
-13 -13 -13 -6 0 6 12 5 13 -7 4 -8 -7 -37 -12 -65 -12 -29 1 -57 -3 -64 -7
-8 -5 -11 -4 -6 3 4 7 -7 11 -31 11 -21 1 -57 2 -81 3 -23 2 -42 1 -42 -2 0
-3 -19 -6 -42 -7 -23 -2 -44 -6 -47 -10 -3 -5 -15 -9 -27 -10 -11 -1 -34 -8
-50 -14 -16 -7 -33 -13 -37 -13 -4 -1 -12 -8 -17 -16 -5 -8 -10 -11 -10 -7 0
15 -81 -75 -92 -102 -14 -35 -17 -81 -6 -113 10 -29 81 -108 98 -108 5 0 10
-7 10 -16 0 -8 4 -13 9 -9 5 3 16 -2 24 -10 9 -8 23 -15 32 -15 10 0 13 -5 9
-12 -4 -6 -3 -8 4 -4 6 3 23 1 38 -4 35 -14 122 -24 199 -23 121 1 205 7 205
16 0 5 6 7 14 4 8 -3 36 1 63 9 26 9 53 17 58 18 6 2 24 6 40 11 17 4 35 10
40 14 19 11 135 49 135 44 0 -2 7 2 15 9 32 29 45 38 45 33 0 -10 50 28 98 74
23 22 42 45 42 51 0 5 4 10 9 10 5 0 12 10 16 23 10 30 12 36 15 42 1 3 3 8 5
13 1 4 6 16 11 27 18 42 6 237 -16 259 -6 6 -10 16 -10 23 0 8 -7 29 -15 49
-8 19 -14 37 -14 41 1 3 -3 9 -8 12 -4 3 -26 33 -47 66 -46 71 -131 156 -203
205 -29 19 -52 39 -53 43 0 5 -4 5 -10 2 -5 -3 -10 -2 -10 3 0 5 -6 9 -12 9
-20 1 -122 47 -130 58 -4 6 -8 7 -8 3 0 -4 -22 1 -50 12 -27 11 -50 17 -50 14
0 -4 -6 -2 -12 3 -7 6 -20 11 -28 11 -8 0 -26 3 -40 7 -14 3 -50 8 -82 9 -31
2 -61 7 -66 10 -6 3 -13 2 -17 -3 -3 -6 -15 -7 -29 -1 -12 4 -29 5 -36 0 -7
-5 -23 -5 -35 0 -12 5 -28 4 -36 0 -8 -5 -16 -5 -19 1 -4 5 -8 7 -11 5z"/>
<path d="M489 3556 c-3 -3 -16 -8 -30 -10 -13 -2 -25 -5 -26 -7 -2 -1 -6 -2
-10 -3 -23 -5 -83 -40 -83 -48 0 -5 -4 -7 -9 -3 -5 3 -17 -5 -25 -17 -9 -12
-16 -19 -16 -16 0 17 -115 -109 -159 -174 -48 -72 -86 -148 -73 -148 3 0 2 -4
-4 -10 -12 -12 -6 -80 8 -80 5 0 6 -4 3 -10 -3 -5 -1 -10 5 -10 6 0 8 -6 4
-12 -4 -7 -4 -10 1 -6 4 4 17 2 29 -5 11 -6 26 -13 31 -13 6 -1 12 -2 15 -3 3
-1 23 -4 45 -6 22 -2 56 -7 75 -11 19 -4 43 -7 53 -8 9 0 17 -5 17 -10 0 -6 5
-5 12 2 8 8 17 8 32 0 15 -8 21 -8 24 1 2 6 13 11 23 11 11 0 18 4 15 9 -3 5
1 12 10 15 8 3 12 10 9 16 -3 5 -1 10 5 10 6 0 8 5 5 10 -3 6 -3 16 1 22 5 7
10 67 11 133 4 139 4 145 13 145 3 0 7 10 7 22 1 13 7 24 13 26 5 2 8 8 4 13
-3 5 3 9 13 10 11 0 13 3 5 6 -8 3 -5 11 10 25 13 11 18 17 11 14 -6 -4 -14
-2 -18 4 -3 5 2 10 12 10 10 0 14 4 8 8 -15 10 -17 32 -3 32 6 0 2 8 -9 18
-11 9 -22 24 -26 32 -4 12 -6 13 -6 1 -1 -12 -4 -11 -14 3 -7 9 -15 15 -18 12z"/>
<path d="M4000 3551 c0 -6 -9 -8 -19 -6 -14 3 -18 -1 -14 -11 3 -8 0 -14 -6
-14 -7 0 -10 -18 -9 -45 0 -25 5 -45 10 -45 4 0 7 -3 6 -7 -1 -5 8 -29 20 -54
29 -60 33 -78 38 -184 2 -49 6 -98 8 -107 2 -9 -1 -19 -8 -22 -7 -3 -7 -5 2
-5 7 -1 10 -5 7 -11 -3 -5 0 -10 7 -10 9 0 9 -3 -2 -10 -10 -6 -11 -10 -2 -10
6 0 12 -7 12 -15 0 -9 11 -20 24 -25 13 -5 27 -14 31 -19 3 -6 13 -11 21 -11
10 0 12 5 8 13 -6 9 -5 9 8 0 8 -7 18 -10 21 -6 4 3 17 7 29 9 13 1 37 5 53 8
17 4 46 9 65 12 19 3 45 7 57 9 12 2 30 8 41 14 11 6 23 7 27 3 5 -4 5 -2 2 5
-4 6 -2 13 4 15 16 5 40 86 28 94 -5 3 -9 11 -7 17 2 16 -27 83 -41 91 -6 4
-11 15 -11 24 0 10 -9 24 -20 32 -11 8 -20 20 -20 27 0 7 -4 13 -10 13 -5 0
-10 6 -10 13 0 15 -98 109 -140 134 -17 9 -30 21 -30 25 0 4 -7 8 -15 8 -8 0
-15 4 -15 8 0 5 -19 15 -42 22 -24 8 -49 18 -55 23 -9 6 -13 5 -13 -4 0 -9 -3
-10 -8 -4 -10 13 -32 17 -32 6z"/>
<path d="M620 3476 c0 -2 8 -10 18 -17 15 -13 16 -12 3 4 -13 16 -21 21 -21
13z"/>
<path d="M90 2849 c0 -6 -7 -9 -14 -6 -9 4 -17 -2 -21 -14 -4 -10 -10 -17 -14
-15 -4 3 -8 0 -9 -7 -7 -56 -7 -108 0 -137 5 -19 11 -46 13 -60 14 -89 27
-144 37 -157 5 -7 7 -17 3 -23 -3 -5 -1 -10 5 -10 6 0 8 -4 5 -10 -3 -5 -1
-10 6 -10 7 0 9 -3 6 -6 -3 -4 -2 -15 3 -25 6 -10 11 -29 12 -43 1 -15 6 -26
11 -26 5 0 7 -7 4 -15 -4 -8 -2 -17 3 -20 6 -4 10 -15 10 -26 0 -21 41 -151
51 -159 3 -3 11 -21 18 -40 7 -19 17 -44 21 -55 21 -53 35 -91 36 -102 1 -7
32 -74 68 -148 36 -74 66 -139 66 -144 0 -5 4 -11 8 -13 8 -3 45 -64 79 -130
8 -16 19 -28 24 -28 5 0 9 -7 9 -15 0 -8 9 -24 19 -34 11 -11 17 -22 14 -25
-4 -3 -1 -6 5 -6 7 0 12 -5 12 -10 0 -12 78 -121 94 -132 6 -4 7 -8 3 -8 -5 0
-2 -7 7 -15 8 -9 32 -37 53 -63 48 -59 217 -229 262 -262 18 -14 43 -34 55
-45 11 -11 37 -31 56 -45 19 -13 38 -28 41 -33 3 -5 10 -9 15 -9 5 -1 27 -13
49 -27 81 -52 198 -111 220 -111 8 0 15 -4 15 -10 0 -5 9 -10 19 -10 11 0 26
-7 34 -15 8 -8 17 -12 20 -9 3 3 16 0 29 -7 28 -16 20 -13 147 -44 57 -13 108
-22 112 -19 4 2 10 1 13 -4 3 -5 25 -8 50 -8 24 1 42 -3 38 -8 -3 -5 5 -7 16
-4 13 4 22 1 22 -5 0 -9 2 -9 8 0 4 7 13 9 20 4 17 -10 126 -3 130 9 2 6 8 8
13 5 12 -8 51 14 44 24 -2 5 3 8 11 7 9 0 18 8 20 18 4 26 24 37 46 25 14 -8
20 -6 25 8 3 10 8 22 11 27 3 5 0 6 -6 2 -7 -4 -12 -14 -12 -22 0 -11 -5 -12
-17 -6 -10 5 -25 7 -33 5 -10 -3 -11 -2 -3 4 6 5 10 21 9 36 -2 19 0 25 8 18
8 -6 17 -6 26 1 13 8 12 9 -2 4 -17 -5 -24 6 -33 53 -2 12 0 19 6 16 5 -4 9
-2 9 4 0 5 -6 11 -12 14 -10 3 -9 8 2 22 8 10 10 16 4 12 -14 -8 -26 17 -18
38 4 8 2 15 -3 15 -5 0 -11 19 -12 43 -5 71 -24 201 -31 210 -1 1 -4 11 -6 22
-6 27 -9 36 -23 68 -6 16 -9 33 -5 38 3 5 0 9 -5 9 -6 0 -10 3 -9 8 0 4 -1 14
-4 22 -16 47 -41 130 -40 134 1 3 -14 32 -33 65 -18 33 -36 69 -40 80 -3 12
-11 21 -16 21 -5 0 -9 8 -9 18 0 10 -5 23 -12 30 -6 6 -13 18 -14 25 -2 17
-99 170 -151 239 -24 31 -43 59 -43 61 0 15 -266 287 -281 287 -6 0 -7 5 -4
10 3 6 3 10 -2 10 -4 0 -20 10 -35 23 -14 13 -54 43 -89 68 -34 24 -82 59
-106 77 -24 17 -47 32 -52 32 -5 0 -11 3 -13 8 -4 10 -127 92 -137 92 -5 0
-11 3 -13 8 -2 4 -30 21 -63 38 -33 17 -95 49 -138 72 -42 23 -84 42 -92 42
-8 0 -15 5 -15 10 0 6 -7 10 -14 10 -8 0 -35 11 -60 24 -26 14 -46 21 -46 18
0 -4 -4 -2 -8 3 -6 9 -29 18 -102 40 -3 1 -13 5 -22 9 -9 4 -22 9 -30 10 -64
15 -78 20 -78 28 0 6 -7 8 -15 4 -8 -3 -15 -1 -15 4 0 6 -7 10 -15 10 -8 0
-15 4 -15 10 0 5 -7 7 -15 4 -8 -4 -15 -1 -15 5 0 6 -7 8 -15 5 -8 -4 -15 -1
-15 4 0 6 -9 9 -20 7 -11 -2 -20 0 -20 6 0 5 -22 9 -50 9 -30 0 -50 -4 -50
-11z"/>
<path d="M4309 2824 c-13 -7 -32 -13 -41 -14 -9 0 -24 -7 -32 -16 -9 -8 -16
-13 -16 -10 0 3 -12 1 -27 -5 -16 -6 -36 -13 -45 -15 -10 -2 -26 -6 -35 -8
-10 -2 -49 -16 -88 -31 -38 -15 -76 -27 -82 -28 -7 0 -13 -4 -13 -9 0 -4 -5
-8 -10 -8 -6 0 -30 -9 -52 -20 -23 -11 -47 -20 -54 -20 -14 0 -107 -50 -115
-63 -3 -5 -9 -8 -13 -8 -20 3 -241 -118 -338 -186 -26 -18 -51 -33 -55 -33 -5
0 -19 -12 -32 -25 -12 -14 -27 -22 -32 -19 -5 3 -9 1 -9 -4 0 -5 -21 -24 -47
-42 -27 -18 -55 -40 -63 -47 -8 -7 -42 -37 -75 -66 -63 -55 -236 -227 -228
-227 4 0 -63 -86 -77 -100 -14 -13 -110 -162 -110 -170 0 -6 -4 -10 -8 -10 -4
0 -30 -44 -57 -97 -27 -54 -61 -116 -74 -138 -13 -22 -24 -41 -23 -42 2 -4
-27 -76 -39 -96 -6 -11 -8 -21 -5 -24 3 -3 -1 -18 -10 -34 -8 -16 -12 -29 -9
-29 3 0 -2 -14 -11 -31 -8 -17 -11 -28 -6 -25 6 4 4 -7 -4 -23 -8 -17 -17 -40
-19 -53 -3 -13 -8 -36 -12 -53 -3 -16 -8 -39 -9 -50 -1 -11 -5 -40 -9 -65 -4
-25 -8 -58 -9 -73 -1 -16 -8 -32 -15 -37 -11 -6 -11 -9 0 -13 9 -4 11 -8 4
-14 -6 -4 -11 -17 -10 -28 0 -12 -12 -27 -30 -38 -27 -17 -19 -17 20 -1 11 5
13 2 9 -10 -3 -9 -9 -14 -13 -12 -4 3 -13 -4 -20 -16 -7 -11 -8 -17 -2 -13 6
3 11 1 11 -5 0 -6 4 -9 9 -6 4 3 7 -5 7 -17 -1 -12 1 -32 6 -45 4 -13 4 -21 0
-18 -4 2 -14 -5 -21 -17 -11 -18 -11 -20 0 -9 21 19 34 14 15 -7 -12 -13 -14
-21 -6 -26 6 -3 9 -1 8 5 -2 7 5 14 14 15 11 2 15 -2 11 -11 -5 -13 18 -44 33
-44 4 0 13 -8 21 -17 8 -11 11 -12 7 -3 -7 13 -5 13 9 1 9 -7 24 -11 32 -7 8
3 15 1 15 -5 0 -13 42 -8 52 6 5 6 8 6 8 -1 0 -6 10 -10 23 -8 12 1 22 3 22 4
0 3 40 9 73 12 18 1 35 5 38 9 2 4 13 6 24 4 11 -2 20 1 20 6 0 6 5 7 10 4 6
-3 15 -3 22 1 7 4 21 9 33 10 29 3 65 11 104 23 19 6 37 8 42 6 4 -3 10 -1 14
5 3 5 17 10 30 10 13 0 26 4 30 9 3 5 19 12 35 16 17 4 30 11 30 16 0 6 4 8 9
4 5 -3 16 2 24 10 9 8 23 15 31 15 9 0 16 5 16 12 0 6 3 8 6 5 7 -7 147 62
152 75 2 5 10 8 17 8 7 0 15 7 19 15 3 8 11 15 18 15 7 0 29 13 48 30 19 16
36 27 38 25 3 -2 13 7 24 20 11 14 24 25 29 25 6 0 22 14 36 30 14 17 27 29
29 27 3 -2 39 32 82 76 137 142 160 168 222 252 25 33 48 62 53 63 4 2 7 10 7
18 0 8 5 14 10 14 6 0 10 6 10 13 0 7 11 24 24 39 14 14 22 29 19 32 -4 3 -2
6 4 6 5 0 18 18 29 40 10 22 22 40 27 40 4 0 7 5 7 11 0 6 9 24 20 39 24 34
83 149 86 169 2 8 9 18 16 22 7 5 9 9 4 9 -4 0 -1 11 8 25 9 14 14 25 11 25
-4 0 3 13 14 29 12 16 21 36 21 44 0 9 4 18 9 21 5 3 14 26 20 51 6 25 16 45
22 45 5 0 8 4 5 9 -3 5 5 29 18 54 12 26 18 43 12 40 -6 -4 -4 2 5 13 19 22
61 152 54 164 -3 5 -1 10 4 12 5 1 12 18 14 37 3 19 9 37 14 40 7 5 12 23 15
59 1 6 5 12 10 12 4 0 7 3 6 8 -1 4 4 23 11 42 7 19 14 46 16 60 1 14 4 34 8
45 3 11 9 38 12 60 8 60 14 87 19 93 3 2 1 12 -4 22 -5 10 -6 20 -3 24 11 11
12 36 2 36 -6 0 -7 5 -4 10 3 6 1 10 -6 10 -7 0 -10 3 -6 6 3 3 -2 14 -11 24
-21 22 -107 24 -143 4z"/>
<path d="M2236 712 c-2 -4 -1 -14 4 -22 7 -11 9 -9 7 8 -1 24 -3 26 -11 14z"/>
<path d="M2235 639 c-4 -6 -5 -12 -2 -15 2 -3 7 2 10 11 7 17 1 20 -8 4z"/>
<path d="M2260 590 c-9 -6 -10 -10 -3 -10 6 0 15 5 18 10 8 12 4 12 -15 0z"/>
<path d="M2220 576 c0 -2 7 -9 15 -16 9 -7 15 -8 15 -2 0 5 -7 12 -15 16 -8 3
-15 4 -15 2z"/>
<path d="M2206 512 c-3 -5 1 -9 9 -9 8 0 15 4 15 9 0 4 -4 8 -9 8 -6 0 -12 -4
-15 -8z"/>
</g>
</svg>
